<?xml version="1.0" encoding="UTF-8"?>
<svg width="1200" height="630" viewBox="0 0 1200 630" xmlns="http://www.w3.org/2000/svg">
  <!-- Background -->
  <rect width="1200" height="630" fill="#0F0F23"/>

  <!-- Accent stripe -->
  <rect x="0" y="0" width="8" height="630" fill="#00D4AA"/>

  <!-- Decorative corner element -->
  <circle cx="1100" cy="100" r="200" fill="#00D4AA" opacity="0.08"/>
  <circle cx="1150" cy="580" r="120" fill="#00D4AA" opacity="0.05"/>

  <!-- Icon: terminal/shell -->
  <g transform="translate(68, 55) scale(1.2)">
    <rect x="4" y="6" width="40" height="30" rx="4" fill="none" stroke="#00D4AA" stroke-width="2.5"/><polyline points="12,16 20,22 12,28" fill="none" stroke="#00D4AA" stroke-width="2.5" stroke-linecap="round" stroke-linejoin="round"/><line x1="24" y1="28" x2="36" y2="28" stroke="#00D4AA" stroke-width="2.5" stroke-linecap="round"/>
  </g>

  <!-- Title -->
  <text x="80" y="200" font-family="system-ui, -apple-system, Segoe UI, sans-serif" font-size="48" font-weight="700" fill="white">Kiro IDE + WSL2: Fixing the</text>
  <text x="80" y="258" font-family="system-ui, -apple-system, Segoe UI, sans-serif" font-size="48" font-weight="700" fill="white">Agent Shell Execution Layer</text>

  <!-- Tags -->
  <rect x="80" y="420" width="58" height="30" rx="15" fill="#00D4AA" opacity="0.3"/>
  <text x="92" y="440" font-family="system-ui, sans-serif" font-size="14" font-weight="500" fill="#00D4AA">kiro</text>
  <rect x="150" y="420" width="64" height="30" rx="15" fill="#00D4AA" opacity="0.3"/>
  <text x="162" y="440" font-family="system-ui, sans-serif" font-size="14" font-weight="500" fill="#00D4AA">wsl2</text>
  <rect x="226" y="420" width="80" height="30" rx="15" fill="#00D4AA" opacity="0.3"/>
  <text x="238" y="440" font-family="system-ui, sans-serif" font-size="14" font-weight="500" fill="#00D4AA">ubuntu</text>
  <rect x="318" y="420" width="148" height="30" rx="15" fill="#00D4AA" opacity="0.3"/>
  <text x="330" y="440" font-family="system-ui, sans-serif" font-size="14" font-weight="500" fill="#00D4AA">open-remote-wsl</text>

  <!-- Footer: site + date -->
  <line x1="80" y1="520" x2="1120" y2="520" stroke="#00D4AA" stroke-opacity="0.3" stroke-width="1"/>
  <text x="80" y="570" font-family="system-ui, sans-serif" font-size="20" fill="rgba(255,255,255,0.7)">mcgarrah.org</text>
  <text x="1120" y="570" font-family="system-ui, sans-serif" font-size="20" fill="rgba(255,255,255,0.7)" text-anchor="end">2026-08-21</text>

  <!-- Author -->
  <text x="80" y="600" font-family="system-ui, sans-serif" font-size="16" fill="rgba(255,255,255,0.7)">Michael McGarrah</text>
</svg>
