<?xml version="1.0" encoding="UTF-8"?>
<svg width="1200" height="630" viewBox="0 0 1200 630" xmlns="http://www.w3.org/2000/svg">
  <!-- Background -->
  <rect width="1200" height="630" fill="#2C3E50"/>

  <!-- Accent stripe -->
  <rect x="0" y="0" width="8" height="630" fill="#F39C12"/>

  <!-- Decorative corner element -->
  <circle cx="1100" cy="100" r="200" fill="#F39C12" opacity="0.08"/>
  <circle cx="1150" cy="580" r="120" fill="#F39C12" opacity="0.05"/>

  <!-- Icon -->
  <g transform="translate(68, 55) scale(1.2)">
    <path d="M24 6 L4 24 L10 24 L10 42 L20 42 L20 30 L28 30 L28 42 L38 42 L38 24 L44 24 Z" fill="none" stroke="#F39C12" stroke-width="2.5"/>
  </g>

  <!-- Title -->
    <text x="80" y="200" font-family="system-ui, -apple-system, Segoe UI, sans-serif" font-size="48" font-weight="700" fill="white">Migrating 16 Domains from SquareSpace</text>
    <text x="80" y="258" font-family="system-ui, -apple-system, Segoe UI, sans-serif" font-size="48" font-weight="700" fill="white">to Porkbun — Part 2: The Sprint Finish</text>

  <!-- Tags -->
    <rect x="80" y="420" width="51" height="30" rx="15" fill="#F39C12" opacity="0.3"/>
    <text x="92" y="440" font-family="system-ui, sans-serif" font-size="14" font-weight="500" fill="#F39C12">dns</text>
    <rect x="143" y="420" width="87" height="30" rx="15" fill="#F39C12" opacity="0.3"/>
    <text x="155" y="440" font-family="system-ui, sans-serif" font-size="14" font-weight="500" fill="#F39C12">domains</text>
    <rect x="242" y="420" width="87" height="30" rx="15" fill="#F39C12" opacity="0.3"/>
    <text x="254" y="440" font-family="system-ui, sans-serif" font-size="14" font-weight="500" fill="#F39C12">porkbun</text>

  <!-- Footer: site + date -->
  <line x1="80" y1="520" x2="1120" y2="520" stroke="#F39C12" stroke-opacity="0.3" stroke-width="1"/>
  <text x="80" y="570" font-family="system-ui, sans-serif" font-size="20" fill="rgba(255,255,255,0.7)">mcgarrah.org</text>
  <text x="1120" y="570" font-family="system-ui, sans-serif" font-size="20" fill="rgba(255,255,255,0.7)" text-anchor="end">2026-06-10</text>

  <!-- Author -->
  <text x="80" y="600" font-family="system-ui, sans-serif" font-size="16" fill="rgba(255,255,255,0.7)">Michael McGarrah</text>
</svg>
