<?xml version="1.0" encoding="UTF-8"?>
<svg width="1200" height="630" viewBox="0 0 1200 630" xmlns="http://www.w3.org/2000/svg">
  <!-- Background -->
  <rect width="1200" height="630" fill="#232F3E"/>

  <!-- Accent stripe -->
  <rect x="0" y="0" width="8" height="630" fill="#FF9900"/>

  <!-- Decorative corner element -->
  <circle cx="1100" cy="100" r="200" fill="#FF9900" opacity="0.08"/>
  <circle cx="1150" cy="580" r="120" fill="#FF9900" opacity="0.05"/>

  <!-- Icon -->
  <g transform="translate(68, 55) scale(1.2)">
    <path d="M12 34 C6 34 2 30 2 25 C2 20 6 16 11 16 C12 10 18 6 25 6 C32 6 38 11 38 18 C43 18 46 22 46 26 C46 31 42 34 38 34 Z" fill="none" stroke="#FF9900" stroke-width="2.5"/>
  </g>

  <!-- Title -->
    <text x="80" y="160" font-family="system-ui, -apple-system, Segoe UI, sans-serif" font-size="42" font-weight="700" fill="white">QuickSight Vanity URLs: Serverless</text>
    <text x="80" y="212" font-family="system-ui, -apple-system, Segoe UI, sans-serif" font-size="42" font-weight="700" fill="white">Edge Redirects with Terraform and</text>
    <text x="80" y="264" font-family="system-ui, -apple-system, Segoe UI, sans-serif" font-size="42" font-weight="700" fill="white">CloudFront</text>

  <!-- Tags -->
    <rect x="80" y="420" width="51" height="30" rx="15" fill="#FF9900" opacity="0.3"/>
    <text x="92" y="440" font-family="system-ui, sans-serif" font-size="14" font-weight="500" fill="#FF9900">aws</text>
    <rect x="143" y="420" width="105" height="30" rx="15" fill="#FF9900" opacity="0.3"/>
    <text x="155" y="440" font-family="system-ui, sans-serif" font-size="14" font-weight="500" fill="#FF9900">terraform</text>
    <rect x="260" y="420" width="114" height="30" rx="15" fill="#FF9900" opacity="0.3"/>
    <text x="272" y="440" font-family="system-ui, sans-serif" font-size="14" font-weight="500" fill="#FF9900">quicksight</text>

  <!-- Footer: site + date -->
  <line x1="80" y1="520" x2="1120" y2="520" stroke="#FF9900" stroke-opacity="0.3" stroke-width="1"/>
  <text x="80" y="570" font-family="system-ui, sans-serif" font-size="20" fill="rgba(255,255,255,0.7)">mcgarrah.org</text>
  <text x="1120" y="570" font-family="system-ui, sans-serif" font-size="20" fill="rgba(255,255,255,0.7)" text-anchor="end">2026-04-25</text>

  <!-- Author -->
  <text x="80" y="600" font-family="system-ui, sans-serif" font-size="16" fill="rgba(255,255,255,0.7)">Michael McGarrah</text>
</svg>
